{
  "title": "Zootopia 2016 HD-TC x264 AC3 TiTAN",
  "uid": 14404672,
  "size": 1114415328,
  "categoryP": "video",
  "categoryS": "movies",
  "magnet": "?xt=urn:btih:b39339730ba556fb11ca32a6261a22650cc4d7ab&amp;dn=Zootopia+2016+HD-TC+x264+AC3+TiTAN&amp;tr=udp%3A%2F%2Ftracker.leechers-paradise.org%3A6969&amp;tr=udp%3A%2F%2Fzer0day.ch%3A1337&amp;tr=udp%3A%2F%2Fopen.demonii.com%3A1337&amp;tr=udp%3A%2F%2Ftracker.coppersurfer.tk%3A6969&amp;tr=udp%3A%2F%2Fexodus.desync.com%3A6969",
  "seeders": 54,
  "leechers": 4,
  "uploader": "xxxlavalxxx",
  "files": 3,
  "time": 1461408396,
  "description": "http://extraimago.com/image/aRTg\r\n \nhttp://www.imdb.com/title/tt2948356/\r\n\r\n\r\nIn a city of anthropomorphic animals, a rookie bunny cop and a cynical con artist fox must work together to uncover a conspiracy.\r\n\r\nDirectors: Byron Howard, Rich Moore\r\nWriters: Byron Howard (story by), Jared Bush (story by)\r\nStars: Ginnifer Goodwin, Jason Bateman, Idris Elba\r\nGenres: Animation | Action | Adventure | Comedy | Crime | Family\r\nCountry: USA\r\nLanguage: English | Norwegian\r\n\r\n\r\nSource: 720pTC MP-BA/Exclusive\r\n\r\nGeneral\r\n\r\nFormat                                   : Matroska\r\nFormat version                           : Version 2\r\nFile size                                : 1.04 GiB\r\nDuration                                 : 1h 47mn\r\nOverall bit rate mode                    : Variable\r\nOverall bit rate                         : 1 385 Kbps\r\n\r\nVideo\r\nID                                       : 1\r\nFormat                                   : AVC\r\nFormat/Info                              : Advanced Video Codec\r\nFormat profile                           :   \r\nFormat settings, CABAC                   : Yes\r\nFormat settings, ReFrames                : 3 frames\r\nCodec ID                                 : V_MPEG4/ISO/AVC\r\nDuration                                 : 1h 47mn\r\nBit rate mode                            : Variable\r\nBit rate                                 : 1 134 Kbps\r\nMaximum bit rate                         : 40.0 Mbps\r\nWidth                                    : 720 pixels\r\nHeight                                   : 304 pixels\r\nDisplay aspect ratio                     : 2.35:1\r\nFrame rate mode                          : Constant\r\nFrame rate                               : 23.976 fps\r\nColor space                              : YUV\r\nChroma subsampling                       : 4:2:0\r\nBit depth                                : 8 bits\r\nScan type                                : Progressive\r\nBits/(Pixel*Frame)                       : 0.216\r\nStream size                              : 870 MiB (82%)\r\nDefault                                  : Yes\r\nForced                                   : No\r\nColor primaries                          : BT.709\r\nTransfer characteristics                 : BT.709\r\nMatrix coefficients                      : BT.709\r\n\r\nAudio\r\nID                                       : 2\r\nFormat                                   : AC-3\r\nFormat/Info                              : Audio Coding 3\r\nMode extension                           : CM (complete main)\r\nFormat settings, Endianness              : Big\r\nCodec ID                                 : A_AC3\r\nDuration                                 : 1h 47mn\r\nBit rate mode                            : Constant\r\nBit rate                                 : 224 Kbps\r\nChannel(s)                               : 2 channels\r\nChannel positions                        : Front: L R\r\nSampling rate                            : 44.1 KHz\r\nBit depth                                : 16 bits\r\nCompression mode                         : Lossy\r\nStream size                              : 172 MiB (16%)\r\nLanguage                                 : English\r\nDefault                                  : Yes\r\nForced                                   : No\r\n\r\n \nhttp://extraimago.com/image/aRT6 \nhttp://extraimago.com/image/aRTV \nhttp://extraimago.com/image/aRTu \nhttp://extraimago.com/image/aRTv \nhttp://extraimago.com/image/aRTA \nhttp://extraimago.com/image/aRTW \nhttp://extraimago.com/image/aRTf",
  "parsed": {
    "xt": "urn:btih:b39339730ba556fb11ca32a6261a22650cc4d7ab",
    "dn": "Zootopia 2016 HD-TC x264 AC3 TiTAN",
    "tr": [
      "udp://exodus.desync.com:6969",
      "udp://open.demonii.com:1337",
      "udp://tracker.coppersurfer.tk:6969",
      "udp://tracker.leechers-paradise.org:6969",
      "udp://zer0day.ch:1337"
    ],
    "infoHash": "b39339730ba556fb11ca32a6261a22650cc4d7ab",
    "infoHashBuffer": {
      "type": "Buffer",
      "data": [
        179,
        147,
        57,
        115,
        11,
        165,
        86,
        251,
        17,
        202,
        50,
        166,
        38,
        26,
        34,
        101,
        12,
        196,
        215,
        171
      ]
    },
    "name": "Zootopia 2016 HD-TC x264 AC3 TiTAN",
    "announce": [
      "udp://exodus.desync.com:6969",
      "udp://open.demonii.com:1337",
      "udp://tracker.coppersurfer.tk:6969",
      "udp://tracker.leechers-paradise.org:6969",
      "udp://zer0day.ch:1337"
    ],
    "urlList": []
  },
  "previous": 89,
  "peers": 50,
  "last_updated": "2016-12-27T10:43:26.916Z"
}